<?xml version="1.0" encoding="UTF-8"?>
<svg id="Layer_2" data-name="Layer 2" xmlns="http://www.w3.org/2000/svg" viewBox="0 0 427.4405 360.8693">
  <defs>
    <style>
      .cls-1 {
        fill: #f7f30d;
      }

      .cls-2 {
        fill: #f2fcfd;
      }

      .cls-3 {
        fill: #fad105;
      }

      .cls-4 {
        fill: #005bac;
      }

      .cls-5 {
        fill: #fbd9b6;
      }

      .cls-6 {
        fill: #fafcfb;
      }

      .cls-7 {
        fill: #fcfcfb;
      }

      .cls-8 {
        fill: #fcfcfc;
      }

      .cls-9 {
        fill: #e70012;
      }

      .cls-10 {
        fill: #e60213;
      }

      .cls-11 {
        fill: #fefffe;
      }

      .cls-12 {
        fill: #fefefe;
      }

      .cls-13 {
        fill: #fbfcf8;
      }

      .cls-14 {
        fill: #fcfefd;
      }

      .cls-15 {
        fill: #f0bf67;
      }

      .cls-16 {
        fill: #fdfaf8;
      }

      .cls-17 {
        fill: #fbd104;
      }

      .cls-18 {
        fill: #fdfcf8;
      }

      .cls-19 {
        fill: #015bac;
      }

      .cls-20 {
        fill: #a1a1a1;
      }

      .cls-21 {
        fill: #a1a1a2;
      }

      .cls-22 {
        fill: #a0a0a1;
      }

      .cls-23 {
        fill: #afa9aa;
      }

      .cls-24 {
        fill: #aaa6a5;
      }

      .cls-25 {
        fill: #a49f9f;
      }

      .cls-26 {
        fill: #d2d2d2;
      }

      .cls-27 {
        fill: #e50313;
      }

      .cls-28 {
        fill: #e50213;
      }

      .cls-29 {
        fill: #c71b2c;
      }

      .cls-30 {
        fill: #e40310;
      }

      .cls-31 {
        fill: #df0512;
      }

      .cls-32 {
        fill: #a8aaaf;
      }

      .cls-33 {
        fill: #140404;
      }

      .cls-34 {
        fill: #130303;
      }

      .cls-35 {
        fill: #120501;
      }

      .cls-36 {
        fill: #103364;
      }

      .cls-37 {
        fill: #110404;
      }

      .cls-38 {
        fill: #170301;
      }

      .cls-39 {
        fill: #170404;
      }

      .cls-40 {
        fill: #150403;
      }

      .cls-41 {
        fill: #150401;
      }

      .cls-42 {
        fill: #0b0707;
      }

      .cls-43 {
        fill: #423c39;
      }

      .cls-44 {
        fill: #40c2e2;
      }

      .cls-45 {
        fill: #413c38;
      }

      .cls-46 {
        fill: #160303;
      }

      .cls-47 {
        fill: #150302;
      }

      .cls-48 {
        fill: #150303;
      }

      .cls-49 {
        fill: #100505;
      }

      .cls-50 {
        fill: #100402;
      }

      .cls-51 {
        fill: #100405;
      }

      .cls-52 {
        fill: #0f0404;
      }

      .cls-53 {
        fill: #3f3b3a;
      }

      .cls-54 {
        fill: #0d040b;
      }

      .cls-55 {
        fill: #0b5ca8;
      }

      .cls-56 {
        fill: #a2a0a1;
      }

      .cls-57 {
        fill: #8a4826;
      }

      .cls-58 {
        fill: #89492a;
      }
    </style>
  </defs>
  <g id="katman_1" data-name="katman 1">
    <g>
      <path class="cls-26" d="M120.8168,217.6293c.8525-.3663,1.7148-.7313,2.5774-1.0787,.0188,1.6124,.0188,3.2248-.0286,4.8372-1.265-.9476-2.0336-2.3063-2.5488-3.7586"/>
      <path class="cls-48" d="M270.2674,309.52c-.2249,9.1021-1.0036,18.1927-.6374,27.3038,4.752,.3374,9.5134,.225,14.2745,.2152-5.4924-8.2287-9.5047-17.5082-10.6569-27.3964-1.0025-.0563-1.9964-.0939-2.9801-.1226m-94.8167-.0559c.8908,9.4854-.9375,18.9899-4.8923,27.6223,2.3247-.0474,4.6584-.0941,6.983-.1502,.3276-9.1482,.0376-18.3054,.2151-27.4538-.5712,0-1.7336-.0183-2.3059-.0183Zm-92.4349,.3561c-1.116,9.3169,.4964,18.6988,3.44,27.5373,1.4812,.0752,2.9613,.1313,4.4422,.1785-4.0398-8.7917-5.9321-18.4928-5.0047-28.1558-.9563,.1496-1.9122,.2898-2.8774,.44Zm-52.02-8.3323c-3.1486,1.9211-5.9982,4.677-7.1421,8.286,1.6312,9.9159,4.6587,20.2354,11.5857,27.8186,4.7708,5.8297,12.5781,7.9295,19.8327,8.1171,8.7072,1.2177,17.452,.1776,26.1592-.3287-.7115-5.2486-4.0575-9.6445-4.8262-14.8744-1.4439-6.2797-1.06-12.7381-1.5849-19.1017-7.8073-.7874-15.6707-.3287-23.4878,.0176-7.1797,.2726-14.3504-.3463-21.5015-.9461,.1876-.5061,.5712-1.5,.7599-2.0061,14.9582-1.6963,30.0862-.2802,45.1105-.9089,.3474-2.0622,.7314-4.1236,1.1439-6.1671-15.3432,0-30.7149-.215-46.0493,.0937Zm53.3512,1.6774c.7126-.0089,2.1276-.0274,2.8301-.0376-.6652-1.0585-1.3688-2.1083-2.09-3.1296-.3561,1.03-.6088,2.0809-.7401,3.1673Zm140.2362-2.5864c-4.7896,4.264-10.0568,7.9573-15.1931,11.7633-7.9392,1.0024-16.0178-.2635-23.9849,.6276-.9663,10.6756,.4212,21.3326,1.1623,31.9711,10.572,.7585,21.2014,.1126,31.8024,.3465,14.5655-.2813,29.1773,.6085,43.7055-.6939-.0376-15.0531,1.3684-30.1426,.3088-45.1678-9.2972-1.3774-18.717-.6179-28.0811-.8341-3.2614,.1502-7.0763-.3835-9.7198,1.9874Zm-99.6428-9.8695c-10.5348,2.0337-18.9332,11.6874-19.9643,22.298-1.0774,8.8945,2.9812,18.2578,10.3008,23.469,8.6609,6.5521,21.5106,6.8236,30.3024,.3561,7.1421-5.136,11.4169-14.0966,10.6197-22.8876-.0278-8.371-5.6049-15.6157-12.2133-20.2267-5.6512-3.3746-12.6244-4.4523-19.0453-3.0088Zm93.2418-3.0744c-4.8745,3.467-8.8482,8.2006-14.1631,11.0317-6.0083,.1587-12.0532-.3098-18.0142,.7402-.4599,3.112-.7972,6.2519-.7777,9.4006,7.2727-.0276,14.5746,.2348,21.8479-.1213,6.6262-4.2273,11.9035-10.5256,18.9704-14.0216,12.2784-.6378,24.5854,.0835,36.8732-.4226-.0561-2.6512-.0561-5.3049-.0286-7.9473-13.8905,.0563-27.7713-.0098-41.6531,.0274-1.1902-.0935-2.1374,.6939-3.055,1.3128Zm-138.8685-2.7376c2.5861,4.7712,6.0734,8.9895,9.8695,12.8509,1.1338-1.6313,2.1186-3.3551,2.9711-5.1549-2.7372-3.9746-5.9895-7.5362-9.1295-11.1732-1.2741,1.1248-2.5025,2.2874-3.7112,3.4772Zm-1.1526-9.7846c-4.5748,6.2145-10.0018,12.1007-12.5231,19.5428,5.0336-.0474,10.0572-.0098,15.0817,.1489-1.8749-3.5799-5.0709-6.261-6.7769-9.9258,.9086-3.1025,4.2184-4.7138,6.3923-6.8984-.6377-.9274-.5625-3.4014-2.1739-2.8675Zm245.5501-4.5362c-12.1193,2.4364-21.914,12.4846-25.1476,24.2566-2.4462,9.3545-.3373,19.6265,5.2585,27.4625,7.7972,11.1161,22.8041,16.2805,35.8421,12.5881,10.0373-2.6535,18.473-10.4319,21.9506-20.2176,5.8207-14.3031-.3652-32.4587-13.8721-40.0408-7.0857-4.4435-15.8778-5.9523-24.0315-4.0488Zm-126.2619,8.5008c-2.9808,1.5937-6.0557,3.149-8.5955,5.4075-1.3117,2.6535-.7401,5.7273-.4028,8.5393,4.7524-.1785,9.5883,.4589,14.2933-.3372,5.8496-4.6773,10.7043-11.6222,18.6338-12.8407,12.0347-.91,24.1444,.4302,36.1697-.5911,.4588-3.5051,.4028-7.0484,.094-10.5535-6.196-.6848-12.4285-.2346-18.6429-.2535-14.4158,.5348-28.4939,4.6496-41.5497,10.6291Zm-116.111-13.7592c.0188,4.2833,2.3052,8.0795,4.4888,11.6131,2.6348,4.0677,5.5398,8.0974,9.4581,11.0409,.8999-1.0498,1.799-2.0996,2.6989-3.1301-5.7922-7.0395-10.7784-14.8001-13.862-23.4235-1.2285,1.0409-2.6435,2.1461-2.7838,3.8996Zm267.1543-18.1369c2.1001,1.7813,4.8927,2.315,7.2925,3.5714,4.7994,2.2498,8.8106,5.8297,13.5344,8.2295-1.2838-5.606-4.8836-10.2545-8.4635-14.5944-4.1059,1.0037-8.2769,1.7248-12.3634,2.7935Zm18.6429-4.4986c1.2187,3.1114,3.2802,5.8201,5.7737,8.0323,2.4187-2.6522,1.1063-6.0171-.2151-8.8197-1.8749,.1402-3.731,.4126-5.5586,.7874Zm-266.63-2.5311c-8.6324,2.634-15.0344,11.7822-13.5908,20.8356,2.615,8.0608,7.0485,15.6627,13.3941,21.3515,4.3677-2.9614,8.576-6.3449,13.6183-8.1258,2.5774-1.3402,6.1211-1.2837,8.1273-3.3561-.2162-5.5762-1.1815-11.2098-.0289-16.7582,.2914-3.0835,1.8561-6.0923,1.5376-9.1856-6.3174-5.1551-15.2119-7.0295-23.0576-4.7614Zm20.7238-3.7396c1.6674,1.6685,3.9736,4.7423,6.5984,3.1211,1.9588-.9563,4.1801-.7024,6.2611-1.1624-1.1623-2.6051-3.2621-4.5173-5.6985-5.9049-2.3911,1.3124-4.7899,2.5961-7.1609,3.9462Zm182.0393,.3374c-2.38,1.7624-3.2712,4.9588-2.6338,7.7884,.8348,2.315,3.6934,2.7274,5.8211,2.325,4.4798-.8437,8.6606-2.8122,12.5684-5.1084-1.0401-3.6925-2.6338-7.1986-4.2176-10.6759-3.9925,1.5372-8.0796,3.0835-11.538,5.6708Zm-67.9247-6.186c-4.4245,8.0323-10.8446,15.7094-20.0489,18.1832-4.9024,.59-10.4784,1.0213-14.537-2.3527-3.6837-1.9959-3.9935-6.5697-6.3174-9.6346-1.6782-.7885-4.0958-1.8285-5.5206-.0474-3.5622,3.7112-8.5572,5.7734-13.6284,6.2897-2.4559,.1689-4.9208-.4222-7.367-.1689-2.4935,1.8089-4.1049,4.9675-7.3022,5.6701-4.0575,.8622-8.2947,1.3596-12.3996,.4974-3.5897-.61-6.3832-3.1311-9.3731-5.0062-1.5087,.7689-2.915,2.1098-4.705,2.0722-1.6685,.1689-4.0582-.6937-4.8369,1.3776-2.2676,4.6486-2.5203,9.9822-2.3988,15.0718,.1215,2.8398,.0275,5.8762,1.4899,8.4348,2.1374,.4313,4.3312,.3748,6.5047,.535,11.5572,.74,22.6266,6.4484,30.05,15.3244,3.6548,4.4431,5.5109,9.9819,8.6421,14.7629,1.2925-.0287,2.5774-.0387,3.871-.0474-.4501-3.4864,1.4899-6.2047,3.5897-8.7169,1.2838-3.6649-.8908-8.2484,1.7614-11.575,3.6837-5.1084,9.7571-7.3958,15.1931-10.0943,11.2947-5.4086,23.7987-7.1895,36.0019-9.3269,6.1771-1.4614,12.5883-.1311,18.7929-1.3779,1.705-6.4482,4.6674-12.4281,7.6476-18.3614-3.7578-.0185-7.5072,.3376-11.1812,1.1524-5.0709-3.7573-8.6143-9.2032-13.9281-12.662Zm-21.1638,1.1526c.59-1.9114,1.6023-3.6272,2.5673-5.3612-2.961,.15-6.1009,.0563-8.8381,1.3311-1.2278,1.4526-1.7715,3.4214-1.3127,5.286,2.0911,2.4279,5.6623,2.3626,8.5297,1.7339,3.8434-1.5837,7.021-5.1547,7.4798-9.3821-3.6551,.9374-4.5275,5.746-8.4259,6.3923Zm13.4119-6.9173c-1.7809,2.9711-2.7274,6.4299-4.986,9.1108-2.4374,3.0461-6.205,4.6486-9.9356,5.4175-4.0763,.8246-7.0109-2.7461-10.2072-4.5836-.7777,1.0033-2.765,1.7622-2.2213,3.3272,1.209,5.5399,8.136,7.8645,13.0847,6.1584,9.5231-2.2772,16.6555-10.7043,19.0554-19.9552-1.5936,.1224-3.2524,.0098-4.7899,.5248Zm-128.5106,7.4521c-24.8287,12.1096-48.4586,27.5564-67.0541,48.1855-4.4801,4.9673-9.8974,10.5919-8.9885,17.8743,2.5123-1.5463,4.8832-3.5803,7.9208-4.0025,8.9035-1.5561,17.9954,1.4248,26.8714-.0748,4.9396-8.3323,10.4505-16.3655,16.4303-24.0139,2.5962-2.6801,1.1251-6.7288,2.3998-9.9535,.8901-3.0833,4.8836-3.9923,5.436-7.2547,1.6587-6.2699,5.2961-12.2218,10.9107-15.6716,5.6599-3.5899,12.4744-4.2175,18.9979-4.5738,3.0651-1.6124,5.5586-4.0962,8.3796-6.0921-.6659-1.125-1.3399-2.24-1.9961-3.3561-6.7209,2.2966-12.9443,5.8307-19.3081,8.9332Zm202.2661-9.6082c-.5062,3.2437-.8713,6.5149-.7502,9.8045,3.6088-2.1837,7.4798-3.9086,11.0882-6.0734,.8626-1.6587,1.0777-3.5525,1.5188-5.3425-4.0022,.1026-7.9957,.5813-11.8569,1.6114Zm-180.5307-5.0134c.5152,1.4522,1.2838,2.8109,2.5488,3.7586,.0473-1.6124,.0473-3.2248,.0286-4.8372-.8626,.3474-1.7249,.7124-2.5774,1.0787Zm-16.6653-.0474c-8.5011,4.0496-17.4057,7.2456-25.653,11.8291-12.4567,6.2228-24.1823,13.7683-35.8233,21.3604-7.0297,5.436-14.5843,10.3009-20.6953,16.8055-5.2296,5.0797-10.4042,10.4132-13.8442,16.908-2.2213,8.0984,3.5712,15.1381,7.8171,21.3989,1.1999-1.0311,2.9436-1.7713,3.3648-3.4209,.4501-3.5525-1.7524-7.161-.2336-10.6009,1.3872-4.1238,4.077-7.6021,6.9921-10.7506,19.5981-23.4694,45.8429-40.3508,73.2667-53.3039,5.4834-2.7925,11.4169-4.5825,16.7969-7.5921-1.2751-1.9772-2.4277-4.4897-4.8551-5.2199-2.5596,.215-4.8084,1.6211-7.1331,2.5864Zm191.825-7.7797c-16.862,12.8405-29.9177,30.5658-36.985,50.5575,2.0615,1.6874,4.6486,3.2799,5.2112,6.1023,.9277,4.4149,.2339,8.9693,.4216,13.4405,1.3496,.3,2.7097,.6089,4.077,.9089,2.2686,6.8608,.4411,14.1055,1.5463,21.1165,1.0224-.6461,2.6623-.8998,2.8311-2.3522,1.0224-4.9862,1.1909-10.1787,2.9899-14.9968,2.9436-7.9476,7.3771-15.3618,13.1316-21.6041,2.8774-2.9811,3.29-7.2823,3.6837-11.2007,.6277-9.2785,1.9212-18.4919,2.4274-27.7814-.056-5.576,6.2513-9.2134,4.555-15.0807-1.3399,.0278-2.7925-.0274-3.8898,.8902Zm-38.1758-33.8448c-3.0087,.3276-6.0174,.7213-8.9133,1.64-13.4871,3.7772-27.4904,6.0458-40.4246,11.6131-.0474,3.8986,.5336,7.7697,1.2462,11.5944,1.2838,6.4947,.675,13.1307,.4125,19.683,7.5261,.1776,14.8656-2.0061,22.2889-2.9811,11.2745-1.5559,22.4665-3.6836,33.751-5.1736,3.6461-.9461,2.3713,3.7399,2.6059,5.8584-10.2256,1.2742-20.3113,3.5712-30.5558,4.6114-.7028,4.0396,3.1211,6.1584,5.4172,8.7632,2.1186,2.0248,3.7961,4.7051,6.5984,5.8584,2.3908,.3,4.7433-.5622,7.1056-.8624,2.765-.5911,6.1664-.4598,7.8164-3.2248,6.5145-8.6598,13.2253-17.4143,22.0077-23.9374,1.9685-1.5376,4.0958-3.3561,4.3771-6.0175,1.3124-8.4732,.385-18.483-6.5145-24.445-3.1023-3.5049-8.1259-3.0459-12.3247-3.8146-4.987-.8339-9.9356,.4411-14.8941,.8348Zm-113.7387-3.8714c-6.1584,2.315-12.017,7.226-13.0944,14.0496,3.2336-.6652,6.4295-1.9861,9.7947-1.499-.1601,.4028-.4598,1.2177-.6189,1.6216-3.0748,1.8083-6.636,3.0083-8.9606,5.876-3.6461,3.4962-5.3699,9.1019-3.1114,13.8344,2.8775-2.2963,5.82-5.3138,9.7849-5.2573-1.8739,3.3459-4.7426,6.0821-6.111,9.7193-1.8276,4.5736-2.9053,10.2632,.525,14.3681,1.5748-3.8799,3.7397-8.6598,8.5756-8.9417-1.03,2.5968-2.6797,4.9397-3.4299,7.6393-.3749,3.6362-.6562,7.5921,1.1999,10.9096,3.0926,6.1486,10.1222,9.9635,16.9831,9.1482,2.0249-.0376,5.6985-.5998,5.3995-3.2522-2.9906-1.4524-6.0456-2.8124-8.6793-4.8649,.6088-1.2835,1.2177-2.5683,1.8373-3.8425,5.9136,1.2279,10.9845,5.6888,17.3208,5.3138,6.9447,.675,13.0843-3.5799,17.6866-8.3321,1.6023-1.6024,2.5774-3.8612,4.7047-4.8836,.0473,2.3809-.3185,4.7336-.675,7.0773,2.1088,.2624,4.4899,.0937,5.9798-1.6216,4.7336-4.7897,4.7809-11.9417,4.996-18.2304,.1876-9.4106-1.1898-19.6454-7.3298-27.1623-1.2549-1.8848-3.5709-1.435-5.4921-1.3787-.0564,1.9874,.4873,4.1435-.7589,5.8862-4.4996-6.9638-11.8106-11.4437-19.1866-14.8557-8.5109-3.6364-18.6516-5.2397-27.34-1.3215Zm232.5218-1.6774c-15.8779,11.4248-31.6147,23.1602-45.9463,36.5262-4.4238,4.4147-9.1761,8.7632-11.9035,14.4994-1.0962,2.4461-2.9523,5.2021-1.6399,7.9295,1.5188,3.7212,3.2148,7.3673,5.0047,10.957,1.6587,3.0927,5.7361,2.9711,8.7636,3.3835-1.406-8.5571-5.7922-16.1966-8.2759-24.435,6.0358,6.421,7.2072,15.7092,11.3782,23.2265,.4787,1.1435,1.9024,.7772,2.8684,.7772,8.3135-1.0122,16.3182-3.617,24.388-5.7458,16.0091-4.0586,31.5959-9.5785,47.2774-14.7155-1.5185-6.786-4.6121-13.1596-8.2296-19.0543-6.5795,2.3524-12.504,7.151-19.7488,7.151-6.3272-.0463-9.3634-9.2321-5.0336-13.5057,4.8745-4.7336,11.2668-7.3584,17.303-10.2545-.8724-4.2173-3.1399-7.9295-4.79-11.857-1.3033-3.0738-2.8872-6.0171-4.7708-8.7632-2.3525,1.05-4.5835,2.3435-6.645,3.8807Zm10.2072-5.6895c2.8959,8.0795,7.0297,15.6431,10.1132,23.6574-6.1309,3.3551-12.9343,5.7075-18.2777,10.3374-2.9801,2.4846-1.9115,9.6543,2.8211,8.9143,7.461-.3287,13.3945-5.5858,20.3204-7.7706,2.9711,5.7271,5.4747,11.6694,7.902,17.6303,.44,1.3596,1.4248,2.3809,2.5398,3.2335,3.3926-4.4049,6.5611-9.1945,8.3135-14.4994-1.0025-3.8622-3.1486-7.3019-4.6486-10.9759-4.3872-10.2535-9.0072-20.4041-13.919-30.4245-5.0239-.6463-10.1324-.7776-15.1646-.1026Zm-247.7351-5.961c-1.2462,2.8862-.4122,6.1197,.4125,9.0069,3.44-1.3496,6.9646-2.465,10.5912-3.2148-.3652-2.5024-1.4053-5.0047-3.5239-6.5145-2.1649-1.7526-5.7448-1.48-7.4798,.7224Zm183.3242-29.4686c-1.8373,9.7295-4.5362,20.3204-12.6255,26.816-5.9798,5.3801-13.9744,7.7226-21.8754,8.0699-.7035,1.565-3.1034,3.2712-1.7162,5.061,2.381,2.6996,5.961,3.9462,9.3547,4.8549,3.3648,.8626,7.4133,1.0126,10.1595-1.4711,2.175-2.9427,.9187-6.7112,.2064-9.9159,1.9122,.7213,4.0119,1.4711,5.1085,3.336,2.0524,2.9248,.7686,6.6273,.6659,9.8984,3.6175,.1311,8.3323-.7224,9.5409-4.7051,1.2285-4.6309-4.996-6.6269-5.1457-11.0043-.7589-4.311,1.6497-8.2195,4.2646-11.397,3.6085-4.3872,6.9545-9.1197,8.7169-14.5844-2.0712-1.8463-4.2835-3.5246-6.6548-4.9584Zm-44.5305-35.4861c-2.5022,3.2061-5.1172,6.5338-8.8294,8.3984-4.846,2.5964-10.9285,3.7399-14.1906,8.576-1.35,3.6838,2.2585,6.1208,4.6584,8.1732-.6649,3.0651-1.7336,6.2336-.9838,9.3821,.8153,3.3277,5.4924,4.0775,8.051,2.3527,3.3561-2.2961,5.3984-5.9325,7.7046-9.185,4.3399-6.5423,9.3258-12.7566,15.6993-17.443-3.6175-3.8809-7.8446-7.1232-12.1096-10.2545Zm-64.8419-21.4826c-2.5025,12.2417-3.1023,24.7914-5.6421,37.0044-7.5734-4.8736-15.521-9.8232-24.5941-11.1541-7.0861-1.0589-15.0243,1.2372-19.3829,7.1806-5.7744,8.2758-5.9234,20.6193,1.0676,28.2675,5.5683,5.8862,13.9845,8.8019,22.0177,8.3608,9.8034-.3274,20.2915-3.6736,26.2438-11.9494,2.081,.9274,3.8898,2.2585,4.6298,4.5073,8.9519-2.6425,15.4093-9.6071,21.1176-16.5895,2.7365,1.3592,4.4335,4.0866,5.1175,7.0012,1.8934,7.6771-1.359,17.7903-9.607,20.1802-.6566,3.8988-1.7813,8.1724-5.2961,10.4885-4.4425,3.411-10.3196,2.6235-15.512,2.0427-2.0058,5.1929-7.311,8.0795-12.7379,7.958,.2061,4.5927,5.3146,5.4834,8.9895,5.5575,1.4238,3.0185,2.8486,6.3084,5.726,8.2206,1.6587,.7776,3.496-.1689,5.1648-.5061,14.0868-4.1996,28.315-8.4921,43.0403-9.6635,4.2737-.3659,8.6323,.0939,12.8594-.7785,4.0774-2.4364,6.0734-7.0573,8.7921-10.788,4.461,.8435,9.2509,1.1998,13.477-.7868,13.4509-6.5145,20.9954-23.0289,16.9093-37.4455-1.3312-4.2825-4.0398-8.5848-8.3608-10.3009-5.7361-2.0148-12.747-1.9211-17.4704,2.3535-7.0022,6.1014-10.3482,15.1555-16.3746,22.082-2.5398,2.6907-6.017,4.8744-9.8319,4.7518-4.0022,.1128-7.6671-2.7549-9.157-6.3734-1.5097-3.1772-.8062-6.7673-.769-10.1407-2.0535-3.1025-5.137-6.1773-4.3684-10.2632,.4689-5.5023,5.5022-8.7358,10.1508-10.6106,5.1551-2.4929,12.4845-4.1049,13.4595-10.8259-2.6989-3.4772-6.5322-5.8575-10.2256-8.136-5.2675,2.9996-11.5286,4.2464-17.5181,3.1498-9.166-1.1898-17.0304-6.3834-25.5037-9.6356-1.6114,1.9872-3.2141,4.0209-5.2575,5.6057,.1312-2.6809,.9273-5.2584,1.3775-7.8921-.8438-.2911-1.6873-.5811-2.5311-.8724Zm-43.6582-17.274c-2.5962,1.6033-.825,4.7055,.825,6.2797,8.2662,8.0334,19.2517,12.2883,29.9086,16.1314,2.09,.8339,4.3298,1.0776,6.5611,1.2187,.4588-3.0659,.881-6.1397,.8247-9.2419-6.4859-2.7-13.1219-5.0236-19.5152-7.9397-1.405-.6272-2.5774-1.6398-3.7199-2.6333,1.6211-.1028,3.29-.2715,4.8923,.1409,8.4071,1.9685,16.3182,5.5297,24.379,8.5384,1.3312,.3,2.9613,1.1439,4.2458,.3189,2.2213-1.94,3.8052-4.4899,6.055-6.3923,3.4024,.15,7.4509-.8998,10.2444,1.6124,2.9711,2.8398,3.496,7.3008,2.8489,11.1722-3.44-1.9213-7.1797-3.6177-11.2373-2.8677,.7112,1.19,1.6775,2.1835,2.9986,2.6896,5.3424,2.4929,10.7509,5.6327,16.8529,5.4264,3.3174-.1028,6.9823,.4876,10.0195-1.1898,.8999-1.4813-.7599-2.3337-1.5936-3.2998-7.3858-4.9388-14.5181-10.2819-22.2513-14.6681-6.0459-3.7488-12.1945-7.5636-19.008-9.7387-5.5485-.8811-11.2097-.3087-16.8056-.4959-8.9697-.085-18.7553-.1974-26.525,4.9386Zm49.1516-28.5867c-.3937,2.0616-.6851,4.1516-.8911,6.2512-1.265,4.1523-2.0622,8.4636-1.8561,12.8133,3.0373,1.4614,5.9996,3.0738,9.0358,4.546l.0473,.7776c.1587-.1028,.4776-.3189,.6363-.4226,2.5972,1.5563,5.2585,3.0096,7.9111,4.4899,5.2306-6.4949,6.0271-15.3895,4.8181-23.3663-1.2661-7.1699-5.1548-14.6122-12.3916-17.2084-3.6088,3.2238-5.7549,7.6197-7.3099,12.1194Zm10.5908-14.7716c.0275,.2626,.0748,.7874,.0936,1.049,2.8211,2.4283,6.0734,4.5555,7.8547,7.958,4.1334,7.6675,5.0611,16.7781,3.6461,25.2879-.59,4.162-3.346,7.5547-4.3211,11.5944,11.6595,5.7923,21.473,14.472,32.2521,21.6328,9.3912,7.4045,18.4831,15.2592,27.9965,22.4476,5.2961,.3002,10.8543,.3189,15.5503,3.2437,6.4111,3.3083,8.2759,10.7409,10.2911,17.039,3.3547,3.0651,7.076,5.9336,11.2379,7.8171,5.0239-.2524,8.9046-4.3583,12.6345-7.3858,6.9458-5.8771,9.3735-16.2053,5.9711-24.6129-1.6786-3.9931-4.8745-7.0669-7.9957-9.9728-5.3326-4.9401-12.5597-6.8049-19.3081-8.9321-6.1298-19.4582-17.9115-36.7048-32.3736-50.9329-10.1132-9.8783-22.7202-17.7893-36.7608-20.3854-8.9885-.9285-18.9892-1.1996-26.7687,4.1525Zm3.7676-9.2795c11.4444-3.7862,24.136-2.8961,35.392,1.1811,11.7817,4.2738,21.5952,12.447,30.5847,20.9578,13.7206,13.8244,24.5749,30.6586,30.5175,49.2729,9.8044,3.0183,20.0579,7.1519,26.3848,15.6616,6.8511,8.8395,6.7198,21.6989,1.0492,31.0902-4.4238,7.0206-11.7535,11.6041-19.2795,14.7155-1.79,.5437-2.6623,2.2772-3.5337,3.7772-2.906,5.071-6.3832,9.7856-9.9632,14.3966-1.4624,1.8937-3.0936,4.2177-2.2213,6.7397,1.0488,2.9524,4.3774,4.2738,5.7448,7.0486,1.1526,4.4888-.5712,9.8695-4.9762,11.8933-5.8868,3.2622-12.7003,.1974-18.9241,1.6309-3.0184,.8713-6.0358-.3561-9.0543-.5335,3.5987,6.3073,4.1247,13.7592,2.7372,20.7889,2.2588,.7213,4.9863,1.0305,6.4198,3.1862,2.4461,3.0835,2.2777,7.1895,2.3337,10.9011,3.1873-.525,6.4111-.7691,9.6081-1.2563,3.0178-2.7362,4.9487-6.4673,8.0698-9.1098,10.3659-8.6893,20.2918-17.9119,31.0236-26.1601,8.192-6.5797,16.7119-12.747,25.3262-18.7554,7.8171-3.9275,16.6743-.6461,24.9314-.7961,4.0774,5.961,6.9263,12.6342,10.1696,19.0641,4.6862,9.1293,8.2672,18.7643,12.2408,28.2214-2.9426,6.4769-5.6609,13.2542-10.2256,18.7928-3.0188,3.9183-8.1548,4.602-12.5312,6.1208-8.2769,2.8675-16.7028,5.2673-25.0261,8.0037,.59,3.5998,2.0524,7.3682,.6374,10.9572-.7773,2.9059-3.6649,4.4244-5.1548,6.8706,.9187,3.7488,1.2563,7.6384,2.2498,11.3409,4.1888,7.0297,8.3511,14.3031,9.9813,22.4111,2.4844,11.8659,1.3496,24.6318-3.8988,35.6259-5.2585,11.8946-14.7719,21.7641-26.2065,27.8751-14.7904,7.761-33.0395,8.7734-48.4666,2.2213-6.8521-2.6711-12.5883-7.3573-18.3804-11.7446-6.9834-.2711-14.0318-.3276-21.0239,.0752-.2249,2.3337,.7213,5.0612-.8713,7.0669-2.4274,1.0974-5.1558,.8713-7.7419,1.0778-16.9082,1.3124-33.9021,.5624-50.848,.7874-9.8044-.0565-19.6364,.2248-29.3837-.974-.6562-2.6161-1.1623-5.2683-1.6312-7.9108-4.3485-.2624-8.7169-.6189-13.0568-.2813-1.9212,.8811-3.055,2.7549-4.602,4.1146-7.8825,7.226-18.3421,11.7809-29.084,11.9972-9.2321,.29-18.5304-2.3714-26.2713-7.3858-3.9837-2.475-7.1609-5.9712-10.5257-9.1858-1.885,.0285-3.7686,.0561-5.6522,.1124,1.3124,2.6151,3.196,4.9681,3.88,7.8734-1.2187,.6096-2.4089,1.4998-3.8337,1.5276-6.8048,.4598-13.6468,.0187-20.4231,.7972-8.1544,.365-16.4028,.3376-24.4162-1.35-7.1797-1.5463-13.4133-6.3547-17.2745-12.532-4.4519-7.1508-8.3981-14.7242-10.6006-22.8976-2.3811-4.8923-7.2448-7.9671-10.1793-12.5031-4.0951-6.1673-7.6385-13.4594-6.7387-21.0615,.5152-4.761,3.6461-8.6221,6.4671-12.2783,5.1273-5.8197,11.2658-10.6569,17.3681-15.4084,18.9053-15.1653,40.097-27.341,62.2258-37.1357,8.3333-3.8333,16.8244-7.4508,25.6537-9.9917,3.056-1.2276,4.3962,2.4085,5.8861,4.2933,1.5661-.61,2.9812-1.4998,4.3398-2.4837-2.8026-5.7744-2.3427-12.6352,.6287-18.2488,1.9212-3.3835,1.2361-7.5084,3.0174-10.9485,1.6963-4.2457,5.4924-7.0571,8.0698-10.6569-1.0676-5.351-2.2589-11.2657,.5535-16.3366,2.3713-3.8149,7.4885-4.4049,11.5471-3.6927,5.5297,2.0153,8.6981,7.4234,11.0882,12.4748,6.8699,2.1472,14.3869,2.4848,20.6302,6.3832,3.9736,2.0153,6.9259,5.4834,10.7032,7.751,3.3185-.5239,6.786-1.8461,10.1045-.5239,2.8301,.89,4.32,3.6838,6.111,5.8201,1.4899-.4776,2.9798-.9465,4.4523-1.4624-.9939-1.7427-1.9686-3.524-3.2158-5.0988-2.7553-1.265-5.9986-1.6496-8.2574-3.8425-2.1924-1.8648-2.6237-4.8647-2.9899-7.5545-2.5871-1.6024-5.2958-3.2998-6.8796-5.9897-1.9024-3.1862-2.0246-7.0108-2.4935-10.6009-8.4447-1.3209-17.5178-2.8112-24.1155-8.7348-6.1681-4.9307-8.4733-13.2352-8.1356-20.8641,.0748-10.6004,5.9046-21.7548,16.0554-25.8511,5.9888-2.6801,12.7745-1.7048,18.9144-.1026,5.5394,1.3687,10.3945,4.4523,15.6342,6.5799,.5148-4.9675,1.4808-9.8882,1.5463-14.8929-9.9635-3.0376-19.8428-6.5149-28.9715-11.5859-5.0897-2.7364-10.6291-5.5386-13.6656-10.6946-2.2972-3.7488-2.0712-9.1195,1.265-12.1933,2.6714-2.3059,6.0835-3.5149,9.4386-4.4246,11.7907-2.8774,24.0138-2.6612,36.0482-2.1648,1.5936-8.9608,2.5774-18.2491,6.7947-26.4592,3.6934-6.6742,9.5134-12.4478,16.8995-14.819Z"/>
      <path class="cls-9" d="M257.8007,175.9574c4.9584-.3937,9.9071-1.6687,14.8941-.8348,4.1989,.7687,9.2224,.3098,12.3247,3.8146,6.8995,5.9621,7.8268,15.9718,6.5145,24.445-.2813,2.6614-2.4086,4.4799-4.3771,6.0175-8.7824,6.5232-15.4932,15.2777-22.0077,23.9374-1.65,2.7651-5.0514,2.6337-7.8164,3.2248-2.3622,.3002-4.7147,1.1624-7.1056,.8624-2.8023-1.1533-4.4798-3.8336-6.5984-5.8584-2.2961-2.6049-6.12-4.7236-5.4172-8.7632,10.2444-1.0402,20.3301-3.3372,30.5558-4.6114-.2346-2.1185,1.0401-6.8045-2.6059-5.8584-11.2846,1.49-22.4765,3.6177-33.751,5.1736-7.4234,.975-14.7629,3.1588-22.2889,2.9811,.2625-6.5523,.8713-13.1883-.4125-19.683-.7126-3.8246-1.2936-7.6958-1.2462-11.5944,12.9343-5.5673,26.9375-7.8358,40.4246-11.6131,2.8959-.9187,5.9046-1.3124,8.9133-1.64M229.092,11.6885c7.7795-5.3521,17.7802-5.0809,26.7687-4.1525,14.0405,2.5961,26.6476,10.5072,36.7608,20.3854,14.4621,14.2281,26.2438,31.4747,32.3736,50.9329,6.7484,2.1272,13.9755,3.9921,19.3081,8.9321,3.1211,2.9059,6.3171,5.9797,7.9957,9.9728,3.4024,8.4076,.9747,18.7358-5.9711,24.6129-3.73,3.0275-7.6107,7.1334-12.6345,7.3858-4.162-1.8835-7.8832-4.752-11.2379-7.8171-2.0152-6.2982-3.88-13.7307-10.2911-17.039-4.696-2.9248-10.2542-2.9435-15.5503-3.2437-9.5134-7.1884-18.6053-15.0431-27.9965-22.4476-10.7791-7.1608-20.5926-15.8405-32.2521-21.6328,.9751-4.0396,3.731-7.4323,4.3211-11.5944,1.4151-8.5098,.4873-17.6204-3.6461-25.2879-1.7812-3.4025-5.0336-5.5297-7.8547-7.958-.0188-.2615-.0661-.7863-.0936-1.049Z"/>
      <path class="cls-6" d="M218.5011,26.4601c1.555-4.4996,3.7011-8.8956,7.3099-12.1194,7.2368,2.5961,11.1255,10.0385,12.3916,17.2084,1.209,7.9769,.4125,16.8714-4.8181,23.3663-2.6526-1.4803-5.3139-2.9335-7.9111-4.4899,2.5499-1.6587,4.9772-3.486,7.312-5.4362-2.8872-7.4508-6.0459-14.809-8.4834-22.4189-1.9961,1.19-3.8985,2.54-5.8009,3.8896"/>
      <path class="cls-31" d="M218.5011,26.4601c1.9024-1.3496,3.8048-2.6996,5.8009-3.8896,2.4374,7.61,5.5962,14.9681,8.4834,22.4189-2.3348,1.9502-4.7621,3.7775-7.312,5.4362-.1587,.1037-.4776,.3198-.6363,.4226l-.0473-.7776c-.675-6.4488-2.3988-12.7568-3.7112-19.1027-1.1627,.5722-2.3149,1.1622-3.4685,1.7435,.2061-2.0996,.4974-4.1896,.8911-6.2512"/>
      <path class="cls-13" d="M217.61,32.7113c1.1536-.5813,2.3059-1.1713,3.4685-1.7435,1.3124,6.346,3.0362,12.6539,3.7112,19.1027-3.0362-1.4722-5.9986-3.0846-9.0358-4.546-.2061-4.3496,.5911-8.661,1.8561-12.8133"/>
      <path class="cls-28" d="M169.3495,55.0467c7.7698-5.136,17.5554-5.0236,26.525-4.9386,5.5958,.1872,11.2571-.3852,16.8056,.4959,6.8135,2.175,12.9621,5.9899,19.008,9.7387-2.6613,.0285-5.3149,.4024-7.8822,1.1248-2.2498,1.9024-3.8337,4.4523-6.055,6.3923-1.2845,.825-2.9147-.0189-4.2458-.3189-8.0608-3.0088-15.9719-6.5699-24.379-8.5384-1.6023-.4124-3.2712-.2437-4.8923-.1409,1.1425,.9935,2.3149,2.0061,3.7199,2.6333,6.3933,2.9161,13.0293,5.2397,19.5152,7.9397,.0564,3.1022-.3659,6.176-.8247,9.2419-2.2314-.1411-4.4711-.3848-6.5611-1.2187-10.6569-3.8431-21.6425-8.098-29.9086-16.1314-1.65-1.5742-3.4212-4.6764-.825-6.2797"/>
      <path class="cls-30" d="M231.6881,60.3427c7.7332,4.3862,14.8656,9.7293,22.2513,14.6681,.2064,.9748,.4125,1.9407,.6277,2.9148-5.97,.9287-12.2032,.975-17.8829-1.3303,.0661-.7787,.141-1.565,.2151-2.3433,.6471-3.8714,.1222-8.3323-2.8489-11.1722-2.7936-2.5122-6.842-1.4624-10.2444-1.6124,2.5673-.7224,5.2209-1.0963,7.8822-1.1248"/>
      <path class="cls-29" d="M225.662,71.3844c4.0575-.75,7.7973,.9463,11.2373,2.8677-.0742,.7783-.149,1.5646-.2151,2.3433,5.6797,2.3053,11.9129,2.259,17.8829,1.3303-.2151-.9742-.4212-1.94-.6277-2.9148,.8337,.9661,2.4935,1.8185,1.5936,3.2998-3.0372,1.6774-6.7021,1.087-10.0195,1.1898-6.102,.2063-11.5105-2.9335-16.8529-5.4264-1.3211-.5061-2.2874-1.4996-2.9986-2.6896"/>
      <path class="cls-5" d="M296.4078,122.1285c-3.9086,3.5525-6.7014,8.4823-7.1888,13.797-.6186,4.3399,.3001,9.2419,3.6273,12.3255,.3652-3.337-.1873-6.8234,1.0315-10.0198,2.4646-3.3459,6.9071-4.1431,9.9346-6.833-2.9613-.6376-5.9512-.0752-8.8948,.2811,2.0524-5.4547,7.0958-8.6508,12.1096-11.0594-3.3088-2.2966-7.6761-.6089-10.6193,1.5085m-74.0455-41.4369c-3.5615,1.1524-6.2238,4.1986-7.5546,7.6197-2.6338,6.551-3.149,13.8157-2.2777,20.7804,.7314,4.7047,2.8312,9.8783,7.4046,11.9968,4.1801,1.48,9.3359,.2715,11.9881-3.4212,4.1714-5.7647,5.1826-13.1968,4.996-20.1426-.1786-5.1649-1.1533-10.7972-4.9306-14.6218-2.5589-2.1837-6.3637-3.5425-9.6259-2.2114Zm-9.3547-8.3708c.8438,.2913,1.6873,.5813,2.5311,.8724-.4501,2.6337-1.2462,5.2112-1.3775,7.8921,2.0434-1.5848,3.6461-3.6185,5.2575-5.6057,8.4733,3.2522,16.3377,8.4458,25.5037,9.6356,5.9895,1.0965,12.2506-.1502,17.5181-3.1498,3.6934,2.2785,7.5268,4.6588,10.2256,8.136-.975,6.721-8.3044,8.333-13.4595,10.8259-4.6486,1.8748-9.6819,5.1084-10.1508,10.6106-.7686,4.086,2.3149,7.1608,4.3684,10.2632-.0373,3.3733-.7408,6.9634,.769,10.1407,1.4899,3.6185,5.1548,6.4862,9.157,6.3734,3.8149,.1226,7.2921-2.0611,9.8319-4.7518,6.0264-6.9264,9.3724-15.9805,16.3746-22.082,4.7234-4.2746,11.7343-4.3683,17.4704-2.3535,4.3211,1.7161,7.0297,6.0184,8.3608,10.3009,4.0861,14.4166-3.4584,30.931-16.9093,37.4455-4.226,1.9866-9.016,1.6303-13.477,.7868-2.7187,3.7307-4.7148,8.3517-8.7921,10.788-4.2271,.8724-8.5857,.4126-12.8594,.7785-14.7253,1.1713-28.9535,5.4638-43.0403,9.6635-1.6688,.3372-3.5061,1.2837-5.1648,.5061-2.8774-1.9122-4.3023-5.2021-5.726-8.2206-3.6749-.0742-8.7834-.9648-8.9895-5.5575,5.427,.1215,10.7321-2.7651,12.7379-7.958,5.1924,.5809,11.0695,1.3683,15.512-2.0427,3.5148-2.3161,4.6395-6.5897,5.2961-10.4885,8.248-2.3898,11.5004-12.5031,9.607-20.1802-.684-2.9146-2.381-5.6421-5.1175-7.0012-5.7083,6.9823-12.1656,13.947-21.1176,16.5895-.7401-2.2488-2.5488-3.5799-4.6298-4.5073-5.9523,8.2758-16.4404,11.622-26.2438,11.9494-8.0332,.4411-16.4494-2.4746-22.0177-8.3608-6.991-7.6482-6.842-19.9917-1.0676-28.2675,4.3587-5.9434,12.2969-8.2395,19.3829-7.1806,9.0731,1.3309,17.0207,6.2805,24.5941,11.1541,2.5398-12.2131,3.1396-24.7627,5.6421-37.0044Z"/>
      <path class="cls-51" d="M216.6537,98.7806c-1.3026,2.2213-1.6114,7.0388,2.2401,5.9238,.1507-1.8653,.1313-3.7401-.1027-5.5962-.534-.0748-1.6024-.2426-2.1374-.3276m-.2712-6.9447c1.4248,1.4716,3.9646,1.7427,4.7332,3.8612,2.9151,6.2799,.769,13.862-3.8434,18.7367,1.06,1.1524,1.9689,2.9709,3.8622,2.2864,3.5427-1.8461,4.3388-6.2797,5.0514-9.8508,.4223-5.1923,.9374-10.8446-1.4899-15.6518-1.5188-3.5338-7.1237-2.7559-8.3135,.6185Zm1.7148-4.237c2.09,.0848,4.5362-.5811,6.2523,1.0213,2.23,1.9783,2.8399,5.1273,3.3836,7.9295,1.1623,7.7045,.1963,16.4866-5.6995,22.1389,2.8969,0,6.2993-.3837,7.8832-3.1772,4.1522-6.5047,4.7047-14.6681,3.7585-22.1389-.8062-3.7864-1.9685-8.5571-6.0734-9.9722-3.6374-1.2563-7.7235,.9461-9.5047,4.1986Zm4.265-6.9073c3.2621-1.3311,7.0669,.0276,9.6259,2.2114,3.7773,3.8246,4.752,9.4569,4.9306,14.6218,.1866,6.9458-.8247,14.3779-4.996,20.1426-2.6522,3.6927-7.808,4.9012-11.9881,3.4212-4.5734-2.1185-6.6732-7.2921-7.4046-11.9968-.8713-6.9647-.3561-14.2294,2.2777-20.7804,1.3308-3.4212,3.9931-6.4673,7.5546-7.6197Z"/>
      <path class="cls-8" d="M218.0973,87.5989c1.7812-3.2525,5.8673-5.4549,9.5047-4.1986,4.1049,1.415,5.2672,6.1858,6.0734,9.9722,.9462,7.4708,.3937,15.6342-3.7585,22.1389-1.5839,2.7935-4.9863,3.1772-7.8832,3.1772,5.8959-5.6523,6.8619-14.4344,5.6995-22.1389-.5437-2.8022-1.1536-5.9512-3.3836-7.9295-1.7162-1.6024-4.1623-.9366-6.2523-1.0213"/>
      <path class="cls-44" d="M216.3826,91.8359c1.1898-3.3744,6.7947-4.1523,8.3135-.6185,2.4273,4.8073,1.9122,10.4596,1.4899,15.6518-.7126,3.5712-1.5087,8.0047-5.0514,9.8508-1.8934,.6846-2.8023-1.1339-3.8622-2.2864,4.6124-4.8746,6.7585-12.4568,3.8434-18.7367-.7686-2.1185-3.3084-2.3896-4.7332-3.8612"/>
      <path class="cls-57" d="M100.5055,240.1517c7.8456-2.2681,16.7401-.3937,23.0576,4.7614,.3185,3.0933-1.2462,6.1021-1.5376,9.1856-1.1526,5.5484-.1873,11.182,.0289,16.7582-2.0061,2.0724-5.5499,2.0159-8.1273,3.3561-5.0423,1.7809-9.2506,5.1644-13.6183,8.1258-6.3456-5.6888-10.7791-13.2907-13.3941-21.3515-1.4436-9.0535,4.9584-18.2017,13.5908-20.8356M277.8496,93.8034c4.265,3.1313,8.4921,6.3736,12.1096,10.2545-6.3735,4.6864-11.3594,10.9006-15.6993,17.443-2.3062,3.2525-4.3485,6.8888-7.7046,9.185-2.5586,1.7248-7.2358,.975-8.051-2.3527-.7498-3.1486,.3189-6.3171,.9838-9.3821-2.3998-2.0524-6.0083-4.4894-4.6584-8.1732,3.2621-4.8362,9.3446-5.9797,14.1906-8.576,3.7122-1.8646,6.3272-5.1923,8.8294-8.3984Z"/>
      <path class="cls-2" d="M216.6537,98.7806c.535,.085,1.6034,.2528,2.1374,.3276,.2339,1.8561,.2534,3.7309,.1027,5.5962-3.8515,1.115-3.5427-3.7025-2.2401-5.9238"/>
      <path class="cls-50" d="M296.4078,122.1285c2.9432-2.1175,7.3106-3.8051,10.6193-1.5085-5.0138,2.4085-10.0572,5.6047-12.1096,11.0594,2.9436-.3563,5.9335-.9187,8.8948-.2811-3.0275,2.6898-7.47,3.487-9.9346,6.833-1.2187,3.1964-.6663,6.6827-1.0315,10.0198-3.3272-3.0835-4.2459-7.9856-3.6273-12.3255,.4873-5.3147,3.2802-10.2445,7.1888-13.797"/>
      <path class="cls-58" d="M322.3801,129.2895c2.3713,1.4337,4.5835,3.112,6.6548,4.9584-1.7625,5.4647-5.1085,10.1972-8.7169,14.5844-2.615,3.1775-5.0235,7.086-4.2646,11.397,.1497,4.3775,6.3742,6.3734,5.1457,11.0043-1.2086,3.9827-5.9234,4.8362-9.5409,4.7051,.1027-3.2712,1.3865-6.9736-.6659-9.8984-1.0965-1.8648-3.1963-2.6146-5.1085-3.336,.7122,3.2046,1.9685,6.9732-.2064,9.9159-2.7462,2.4837-6.7947,2.3337-10.1595,1.4711-3.3937-.9087-6.9736-2.1553-9.3547-4.8549-1.3872-1.7898,1.0126-3.4959,1.7162-5.061,7.901-.3474,15.8956-2.6898,21.8754-8.0699,8.0893-6.4956,10.7882-17.0864,12.6255-26.816"/>
      <path class="cls-45" d="M139.0559,158.7581c1.735-2.2024,5.3149-2.475,7.4798-.7224,2.1186,1.5098,3.1587,4.012,3.5239,6.5145-3.6266,.7498-7.1512,1.8653-10.5912,3.2148-.8247-2.8872-1.6587-6.1208-.4125-9.0069"/>
      <path class="cls-17" d="M326.4665,315.0873c.1685,4.4336-.4216,8.9234,.3283,13.3107,.9277,3.9075,7.0297,3.7586,8.0047-.0387,.7777-4.376,.1215-8.8471,.3377-13.272-2.8962,.0287-5.7834,.0376-8.6706,0m16.2615-16.3456c.1511,2.8311,.1511,5.6797-.2336,8.4919,4.4335-.0285,8.923,.4502,13.328-.2533,3.7112-.5902,4.1522-7.2549,.1688-7.836-4.321-1.115-8.8572-.3276-13.2632-.4026Zm-38.4369,.8624c-3.2712,1.6685-1.8561,6.9825,1.5738,7.4134,4.2086,.7224,8.5018,.1313,12.748,.2439-.1313-2.8401-.1511-5.6799-.0376-8.5197-4.7336,.1963-9.8135-1.115-14.2842,.8624Zm23.1787-3.0651c-4.4147,2.0524-5.4548,8.9884-1.4533,11.9409,4.0586,3.299,11.4729,.6463,11.8481-4.7984,.8999-5.3525-5.6801-9.9258-10.3948-7.1425Zm-.9096-18.1177c-.1876,4.2175-.0463,8.4447,0,12.672,2.8023-.2624,5.6146-.2715,8.427-.215,.0275-4.4336,.581-8.9423-.2538-13.3283-.8435-4.1712-8.4071-3.3283-8.1732,.8713Zm-2.8489-7.8447c8.1537-1.9035,16.9458-.3948,24.0315,4.0488,13.5069,7.5821,19.6928,25.7377,13.8721,40.0408-3.4776,9.7856-11.9132,17.5641-21.9506,20.2176-13.038,3.6925-28.0449-1.472-35.8421-12.5881-5.5958-7.836-7.7047-18.108-5.2585-27.4625,3.2335-11.772,13.0282-21.8202,25.1476-24.2566Zm63.0797-105.8575c5.0322-.675,10.1407-.5437,15.1646,.1026,4.9118,10.0204,9.5318,20.171,13.919,30.4245,1.5,3.674,3.6461,7.1136,4.6486,10.9759-1.7524,5.3049-4.9209,10.0945-8.3135,14.4994-1.115-.8526-2.0998-1.874-2.5398-3.2335-2.4273-5.961-4.9309-11.9033-7.902-17.6303-6.9259,2.1848-12.8594,7.4419-20.3204,7.7706-4.7325,.74-5.8012-6.4297-2.8211-8.9143,5.3435-4.6299,12.1469-6.9823,18.2777-10.3374-3.0835-8.0143-7.2173-15.5779-10.1132-23.6574Z"/>
      <path class="cls-53" d="M336.8422,218.8754c-2.4552,.6563-4.4425,2.8496-4.7701,5.3797-.731,4.5749,4.115,9.3269,8.7072,7.7332,3.9924-1.0972,4.8272-6.1671,3.9461-9.6543-.9375-3.3272-4.846-4.4897-7.8832-3.4585m39.7416-48.4668c2.0615-1.5372,4.2925-2.8307,6.645-3.8807,1.8836,2.7461,3.4675,5.6895,4.7708,8.7632,1.65,3.9275,3.9176,7.6397,4.79,11.857-6.0362,2.8961-12.4285,5.521-17.303,10.2545-4.3297,4.2736-1.2936,13.4594,5.0336,13.5057,7.2448,0,13.1692-4.7986,19.7488-7.151,3.6175,5.8947,6.7112,12.2683,8.2296,19.0543-15.6815,5.137-31.2683,10.6569-47.2774,14.7155-8.0698,2.1287-16.0745,4.7336-24.388,5.7458-.966,0-2.3898,.3663-2.8684-.7772-4.171-7.5173-5.3424-16.8055-11.3782-23.2265,2.4837,8.2384,6.8699,15.8779,8.2759,24.435-3.0275-.4124-7.1049-.2909-8.7636-3.3835-1.79-3.5896-3.4859-7.2358-5.0047-10.957-1.3124-2.7274,.5437-5.4834,1.6399-7.9295,2.7274-5.7362,7.4798-10.0848,11.9035-14.4994,14.3315-13.3659,30.0684-25.1013,45.9463-36.5262Z"/>
      <path class="cls-11" d="M164.5035,209.9435c.2249,.5998,.675,1.7985,.8999,2.3988,5.1649,2.1659,10.8446-2.5677,11.7072-7.6384-4.6399-.5626-11.1259-.2441-12.607,5.2397m.4125-17.6495c-.975,1.4248-.3652,3.2427-.385,4.8362,4.0401,1.8935,8.5398,.8909,12.4483-.825-.7502-5.2012-8.2021-6.8697-12.0633-4.0112Zm.6837-13.8066c-.2809,.6283-.8525,1.8748-1.1338,2.5033,1.0777,4.8449,6.6649,5.5299,10.7885,5.1362-.0661-4.6125-5.0524-8.9137-9.6547-7.6395Zm-21.5377-6.4014c8.6884-3.9181,18.8291-2.3148,27.34,1.3215,7.376,3.412,14.687,7.8919,19.1866,14.8557,1.2462-1.7427,.7025-3.8988,.7589-5.8862,1.9212-.0563,4.2372-.5061,5.4921,1.3787,6.1399,7.5169,7.5174,17.7517,7.3298,27.1623-.2151,6.2886-.2625,13.4407-4.996,18.2304-1.4899,1.7153-3.8709,1.8839-5.9798,1.6216,.3564-2.3437,.7223-4.6964,.675-7.0773-2.1273,1.0224-3.1023,3.2811-4.7047,4.8836-4.6023,4.7523-10.7419,9.0071-17.6866,8.3321-6.3362,.375-11.4071-4.086-17.3208-5.3138-.6196,1.2742-1.2285,2.559-1.8373,3.8425,2.6338,2.0524,5.6888,3.4124,8.6793,4.8649,.299,2.6524-3.3745,3.2146-5.3995,3.2522-6.8608,.8152-13.8905-2.9996-16.9831-9.1482-1.8561-3.3175-1.5748-7.2734-1.1999-10.9096,.7502-2.6996,2.3998-5.0425,3.4299-7.6393-4.8359,.2819-7.0008,5.0618-8.5756,8.9417-3.4302-4.1049-2.3525-9.7945-.525-14.3681,1.3684-3.6372,4.2372-6.3734,6.111-9.7193-3.9649-.0565-6.9075,2.9609-9.7849,5.2573-2.2585-4.7325-.5347-10.3382,3.1114-13.8344,2.3247-2.8677,5.8858-4.0677,8.9606-5.876,.1591-.4039,.4588-1.2187,.6189-1.6216-3.3652-.4872-6.5611,.8337-9.7947,1.499,1.0774-6.8236,6.936-11.7346,13.0944-14.0496Z"/>
      <path class="cls-52" d="M164.916,192.294c3.8612-2.8585,11.3131-1.19,12.0633,4.0112-3.9085,1.7159-8.4082,2.7185-12.4483,.825,.0198-1.5935-.59-3.4114,.385-4.8362m.6837-13.8066c4.6023-1.2742,9.5886,3.027,9.6547,7.6395-4.1237,.3937-9.7108-.2913-10.7885-5.1362,.2813-.6285,.8529-1.875,1.1338-2.5033Z"/>
      <path class="cls-49" d="M164.5035,209.9435c1.4812-5.4838,7.9671-5.8023,12.607-5.2397-.8626,5.0708-6.5423,9.8043-11.7072,7.6384-.2249-.6002-.675-1.799-.8999-2.3988"/>
      <path class="cls-36" d="M279.8745,234.9309c-3.0936,3.5712-5.7361,7.5082-7.9393,11.6793-2.3337,4.4797-5.3236,8.8947-5.6049,14.1146,4.5835-3.4401,6.2235-9.3445,9.3543-13.9559,4.9024-7.601,9.551-15.3718,14.5557-22.9076-4.3113,2.8211-7.0485,7.2647-10.3659,11.0696m16.102-25.1288c1.0972-.9176,2.5499-.8624,3.8898-.8902,1.6963,5.8673-4.611,9.5047-4.555,15.0807-.5062,9.2895-1.7997,18.503-2.4274,27.7814-.3937,3.9183-.8062,8.2195-3.6837,11.2007-5.7546,6.2423-10.188,13.6566-13.1316,21.6041-1.799,4.8181-1.9675,10.0106-2.9899,14.9968-.1688,1.4524-1.8088,1.7061-2.8311,2.3522-1.1053-7.011,.7223-14.2557-1.5463-21.1165-1.3674-.3-2.7274-.6089-4.077-.9089-.1876-4.4712,.5062-9.0256-.4216-13.4405-.5625-2.8224-3.1497-4.4149-5.2112-6.1023,7.0673-19.9917,20.123-37.717,36.985-50.5575Z"/>
      <path class="cls-27" d="M104.1515,217.5819c2.3247-.9652,4.5734-2.3714,7.1331-2.5864,2.4273,.7303,3.5799,3.2427,4.8551,5.2199-5.38,3.0096-11.3135,4.7996-16.7969,7.5921-27.4239,12.9531-53.6687,29.8345-73.2667,53.3039-2.915,3.1486-5.6049,6.6269-6.9921,10.7506-1.5188,3.4399,.6837,7.0484,.2336,10.6009-.4212,1.6496-2.1649,2.3898-3.3648,3.4209-4.2459-6.2608-10.0384-13.3005-7.8171-21.3989,3.44-6.4947,8.6146-11.8283,13.8442-16.908,6.111-6.5047,13.6656-11.3696,20.6953-16.8055,11.641-7.5921,23.3667-15.1377,35.8233-21.3604,8.2474-4.5836,17.1519-7.7795,25.653-11.8291"/>
      <path class="cls-42" d="M337.7232,221.4904c-4.0586,.3848-4.6208,6.6545-.7498,7.808,3.6182,1.8179,6.5608-2.9333,5.3995-6.1121-.3847-2.0422-3.0647-1.9861-4.6497-1.6959m-.8811-2.6151c3.0373-1.0311,6.9458,.1313,7.8832,3.4585,.881,3.4872,.0463,8.5571-3.9461,9.6543-4.5922,1.5937-9.4382-3.1583-8.7072-7.7332,.3275-2.5301,2.3149-4.7234,4.7701-5.3797Z"/>
      <path class="cls-21" d="M301.3475,222.6426c3.8612-1.03,7.8547-1.5087,11.8569-1.6114-.4411,1.79-.6562,3.6838-1.5188,5.3425-3.6085,2.1648-7.4794,3.8896-11.0882,6.0734-.1211-3.2896,.244-6.5608,.7502-9.8045"/>
      <path class="cls-25" d="M337.7232,221.4904c1.5849-.2902,4.265-.3463,4.6497,1.6959,1.1613,3.1787-1.7813,7.9299-5.3995,6.1121-3.8709-1.1535-3.3088-7.4232,.7498-7.808"/>
      <path class="cls-12" d="M99.0813,232.2509c6.3637-3.1025,12.5872-6.6366,19.3081-8.9332,.6562,1.1161,1.3301,2.2311,1.9961,3.3561-2.8211,1.9959-5.3146,4.4797-8.3796,6.0921-6.5235,.3563-13.3381,.9839-18.9979,4.5738-5.6146,3.4498-9.252,9.4017-10.9107,15.6716-.5524,3.2624-4.5459,4.1714-5.436,7.2547-1.2748,3.2246,.1963,7.2734-2.3998,9.9535-5.9798,7.6484-11.4907,15.6816-16.4303,24.0139-8.876,1.4996-17.9679-1.4813-26.8714,.0748-3.0376,.4222-5.4085,2.4561-7.9208,4.0025-.9089-7.2823,4.5083-12.907,8.9885-17.8743,18.5955-20.6291,42.2254-36.0759,67.0541-48.1855"/>
      <path class="cls-55" d="M227.592,224.7988c1.5376-.515,3.1963-.4024,4.7899-.5248-2.3998,9.2508-9.5322,17.6779-19.0554,19.9552-4.9487,1.7061-11.8757-.6185-13.0847-6.1584-.5437-1.565,1.4436-2.324,2.2213-3.3272,3.1963,1.8374,6.1309,5.4081,10.2072,4.5836,3.7306-.7689,7.4982-2.3714,9.9356-5.4175,2.2585-2.6809,3.205-6.1397,4.986-9.1108"/>
      <path class="cls-54" d="M279.8745,234.9309c3.3175-3.8049,6.0546-8.2484,10.3659-11.0696-5.0047,7.5358-9.6533,15.3066-14.5557,22.9076-3.1309,4.6114-4.7708,10.5159-9.3543,13.9559,.2813-5.2199,3.2712-9.635,5.6049-14.1146,2.2032-4.1712,4.8457-8.1082,7.9393-11.6793"/>
      <path class="cls-1" d="M214.1801,231.7161c3.8984-.6463,4.7708-5.4549,8.4259-6.3923-.4588,4.2275-3.6363,7.7984-7.4798,9.3821-2.8674,.6287-6.4386,.6939-8.5297-1.7339-.4588-1.8646,.0849-3.8333,1.3127-5.286,2.7372-1.2748,5.8771-1.1811,8.8381-1.3311-.9649,1.7339-1.9772,3.4498-2.5673,5.3612"/>
      <path class="cls-19" d="M235.344,230.5634c5.3138,3.4588,8.8572,8.9047,13.9281,12.662,3.6739-.8148,7.4234-1.1709,11.1812-1.1524-2.9801,5.9334-5.9425,11.9133-7.6476,18.3614-6.2046,1.2468-12.6157-.0835-18.7929,1.3779-12.2032,2.1374-24.7072,3.9183-36.0019,9.3269-5.436,2.6986-11.5094,4.986-15.1931,10.0943-2.6522,3.3266-.4776,7.9102-1.7614,11.575-2.0998,2.5122-4.0398,5.2305-3.5897,8.7169-1.2936,.0087-2.5784,.0187-3.871,.0474-3.1312-4.7809-4.9873-10.3198-8.6421-14.7629-7.4234-8.876-18.4928-14.5844-30.05-15.3244-2.1736-.1602-4.3673-.1037-6.5047-.535-1.4624-2.5585-1.3684-5.5949-1.4899-8.4348-.1215-5.0897,.1312-10.4232,2.3988-15.0718,.7787-2.0713,3.1685-1.2087,4.8369-1.3776,1.79,.0376,3.1963-1.3033,4.705-2.0722,2.9899,1.875,5.7834,4.3962,9.3731,5.0062,4.1049,.8622,8.342,.3648,12.3996-.4974,3.1974-.7026,4.8087-3.8612,7.3022-5.6701,2.4462-.2533,4.9111,.3378,7.367,.1689,5.0712-.5163,10.0662-2.5785,13.6284-6.2897,1.4248-1.7811,3.8424-.7411,5.5206,.0474,2.3239,3.0648,2.6338,7.6386,6.3174,9.6346,4.0586,3.374,9.6346,2.9427,14.537,2.3527,9.2043-2.4738,15.6244-10.1509,20.0489-18.1832"/>
      <path class="cls-22" d="M303.2686,236.7494c3.4585-2.5872,7.5456-4.1336,11.538-5.6708,1.5839,3.4772,3.1775,6.9834,4.2176,10.6759-3.9078,2.2961-8.0886,4.2646-12.5684,5.1084-2.1276,.4024-4.9863-.01-5.8211-2.325-.6374-2.8296,.2538-6.026,2.6338-7.7884"/>
      <path class="cls-16" d="M84.347,303.1653c.1312-1.0863,.384-2.1372,.7401-3.1673,.7213,1.0213,1.4248,2.0711,2.09,3.1296-.7025,.0102-2.1175,.0287-2.8301,.0376m36.8823-66.7533c2.371-1.35,4.7698-2.6337,7.1609-3.9462,2.4364,1.3876,4.5362,3.2998,5.6985,5.9049-2.081,.46-4.3023,.2061-6.2611,1.1624-2.6247,1.6211-4.9309-1.4526-6.5984-3.1211Z"/>
      <path class="cls-24" d="M367.1355,242.6828c1.8276-.3748,3.6837-.6472,5.5586-.7874,1.3214,2.8027,2.6338,6.1675,.2151,8.8197-2.4935-2.2122-4.555-4.921-5.7737-8.0323"/>
      <path class="cls-20" d="M348.4926,247.1814c4.0864-1.0687,8.2574-1.7898,12.3634-2.7935,3.5799,4.3399,7.1797,8.9884,8.4635,14.5944-4.7238-2.3998-8.735-5.9797-13.5344-8.2295-2.3998-1.2563-5.1924-1.79-7.2925-3.5714"/>
      <path class="cls-15" d="M81.3383,265.3182c.1403-1.7535,1.5553-2.8588,2.7838-3.8996,3.0835,8.6234,8.0698,16.384,13.862,23.4235-.8999,1.0305-1.799,2.0803-2.6989,3.1301-3.9183-2.9435-6.8232-6.9732-9.4581-11.0409-2.1837-3.5335-4.47-7.3297-4.4888-11.6131"/>
      <path class="cls-10" d="M197.4494,279.0774c13.0558-5.9795,27.1339-10.0943,41.5497-10.6291,6.2144,.0189,12.4469-.4313,18.6429,.2535,.3088,3.5051,.3648,7.0484-.094,10.5535-12.0253,1.0213-24.135-.3189-36.1697,.5911-7.9295,1.2185-12.7842,8.1634-18.6338,12.8407-4.705,.7961-9.5409,.1587-14.2933,.3372-.3373-2.812-.9089-5.8858,.4028-8.5393,2.5398-2.2585,5.6146-3.8138,8.5955-5.4075"/>
      <path class="cls-18" d="M78.1612,275.1128c1.6114-.5339,1.5362,1.94,2.1739,2.8675-2.1739,2.1846-5.4837,3.7959-6.3923,6.8984,1.7061,3.6649,4.902,6.346,6.7769,9.9258-5.0246-.1587-10.0481-.1963-15.0817-.1489,2.5213-7.4421,7.9483-13.3283,12.5231-19.5428"/>
      <path class="cls-34" d="M326.5601,278.4213c-.2339-4.1996,7.3297-5.0425,8.1732-.8713,.8348,4.386,.2813,8.8947,.2538,13.3283-2.8124-.0565-5.6247-.0474-8.427,.215-.0463-4.2273-.1876-8.4545,0-12.672"/>
      <path class="cls-43" d="M79.3138,284.8973c1.2086-1.1898,2.4371-2.3524,3.7112-3.4772,3.1399,3.637,6.3923,7.1986,9.1295,11.1732-.8525,1.7998-1.8373,3.5236-2.9711,5.1549-3.7961-3.8614-7.2834-8.0797-9.8695-12.8509"/>
      <path class="cls-14" d="M218.1823,287.635c.9176-.6189,1.8648-1.4063,3.055-1.3128,13.8818-.0372,27.7626,.0289,41.6531-.0274-.0275,2.6425-.0275,5.2962,.0286,7.9473-12.2878,.5061-24.5948-.2152-36.8732,.4226-7.0669,3.4959-12.3442,9.7943-18.9704,14.0216-7.2733,.3561-14.5752,.0937-21.8479,.1213-.0195-3.1488,.3178-6.2886,.7777-9.4006,5.961-1.05,12.0059-.5815,18.0142-.7402,5.3149-2.8311,9.2886-7.5647,14.1631-11.0317"/>
      <path class="cls-3" d="M127.3114,324.9955c.0849,3.6838-.7213,7.5449,.5162,11.1061,1.115,2.3057,3.7112,1.6033,5.5673,.7783,.7874-3.8236,.7314-7.7145,.2527-11.5757-2.1088-.1687-4.2264-.2437-6.3362-.3087m-16.5706-6.2047c3.4114,1.0113,7.0861,.2711,10.5912,.3174-.0564-2.1361-.0839-4.2734-.0839-6.401-3.5061-.0661-7.0861-.6098-10.5445,.1313-2.5123,.9939-2.5213,5.0149,.0372,5.9523Zm29.29-6.2621c.0564,2.2311,.0286,4.4712-.0463,6.7021,3.4574-.085,6.9635,.3652,10.3847-.2537,2.7835-.9176,2.9432-5.3797,.0936-6.2423-3.4497-.5061-6.9548-.14-10.4321-.2061Zm-12.1096-1.7051c-1.7336,1.05-3.1211,2.9427-2.9335,5.0612-.3377,3.2986,3.0275,5.8947,6.1573,5.3521,3.881,.1776,6.4111-4.612,4.4711-7.8547-1.1902-3.0935-4.9299-3.3372-7.6949-2.5585Zm-.431-15.3244c-.6099,3.6075-.2064,7.301-.2162,10.947,2.1746-.085,4.3583-.1222,6.542-.0935-.205-3.7687,.5538-7.686-.5427-11.3422-1.6309-1.7427-4.3959-1.3211-5.7831,.4887Zm-2.5499-4.7899c6.4208-1.4435,13.3941-.3659,19.0453,3.0088,6.6085,4.611,12.1855,11.8557,12.2133,20.2267,.7972,8.7911-3.4776,17.7517-10.6197,22.8876-8.7918,6.4675-21.6415,6.196-30.3024-.3561-7.3196-5.2112-11.3782-14.5744-10.3008-23.469,1.0311-10.6106,9.4295-20.2643,19.9643-22.298Z"/>
      <path class="cls-35" d="M127.4904,295.4993c1.3872-1.8098,4.1522-2.2313,5.7831-.4887,1.0965,3.6561,.3377,7.5734,.5427,11.3422-2.1837-.0287-4.3674,.0085-6.542,.0935,.0097-3.6459-.3937-7.3395,.2162-10.947"/>
      <path class="cls-33" d="M327.4697,296.5391c4.7148-2.7833,11.2947,1.79,10.3948,7.1425-.3752,5.4447-7.7896,8.0974-11.8481,4.7984-4.0015-2.9524-2.9613-9.8885,1.4533-11.9409"/>
      <path class="cls-4" d="M23.8537,309.7739c2.325-.3287,4.6399-.7874,6.9371-1.3037-.1887,.5061-.5723,1.5-.7599,2.0061,7.1512,.5998,14.3218,1.2187,21.5015,.9461,7.8171-.3463,15.6805-.805,23.4878-.0176,.5249,6.3636,.141,12.822,1.5849,19.1017,.7686,5.2299,4.1146,9.6258,4.8262,14.8744-8.7072,.5063-17.452,1.5463-26.1592,.3287-7.2545-.1876-15.0619-2.2874-19.8327-8.1171-6.927-7.5832-9.9545-17.9027-11.5857-27.8186m200.7296-9.195c2.6435-2.3709,6.4584-1.8372,9.7198-1.9874,9.3641,.2163,18.7839-.5433,28.0811,.8341,1.0596,15.0253-.3464,30.1147-.3088,45.1678-14.5282,1.3024-29.14,.4126-43.7055,.6939-10.6009-.2339-21.2303,.412-31.8024-.3465-.7411-10.6385-2.1287-21.2954-1.1623-31.9711,7.9671-.8911,16.0457,.3748,23.9849-.6276,5.1363-3.8059,10.4035-7.4993,15.1931-11.7633Z"/>
      <path class="cls-46" d="M304.291,299.6041c4.4707-1.9774,9.5507-.6661,14.2842-.8624-.1135,2.8398-.0936,5.6797,.0376,8.5197-4.2462-.1126-8.5394,.4785-12.748-.2439-3.4299-.4309-4.845-5.7449-1.5738-7.4134"/>
      <path class="cls-47" d="M342.728,298.7417c4.406,.075,8.9422-.7124,13.2632,.4026,3.9834,.5811,3.5423,7.2458-.1688,7.836-4.4049,.7035-8.8945,.2248-13.328,.2533,.3847-2.8122,.3847-5.6608,.2336-8.4919"/>
      <path class="cls-7" d="M30.9958,301.4879c15.3345-.3087,30.7062-.0937,46.0493-.0937-.4125,2.0435-.7965,4.1049-1.1439,6.1671-15.0243,.6287-30.1523-.7874-45.1105,.9089-2.2972,.5163-4.6121,.975-6.9371,1.3037,1.1439-3.609,3.9935-6.3649,7.1421-8.286"/>
      <path class="cls-32" d="M83.0159,309.8202c.9653-.1502,1.9212-.2904,2.8774-.44-.9274,9.663,.9649,19.3641,5.0047,28.1558-1.4808-.0472-2.961-.1033-4.4422-.1785-2.9436-8.8384-4.556-18.2204-3.44-27.5373"/>
      <path class="cls-23" d="M175.4508,309.4641c.5723,0,1.7346,.0183,2.3059,.0183-.1775,9.1484,.1124,18.3056-.2151,27.4538-2.3247,.0561-4.6584,.1028-6.983,.1502,3.9548-8.6323,5.7831-18.1369,4.8923-27.6223"/>
      <path class="cls-56" d="M270.2674,309.52c.9838,.0287,1.9776,.0663,2.9801,.1226,1.1522,9.8882,5.1645,19.1678,10.6569,27.3964-4.7611,.0098-9.5225,.1222-14.2745-.2152-.3662-9.111,.4125-18.2017,.6374-27.3038"/>
      <path class="cls-40" d="M127.9213,310.8237c2.765-.7787,6.5047-.535,7.6949,2.5585,1.94,3.2427-.59,8.0323-4.4711,7.8547-3.1298,.5426-6.495-2.0535-6.1573-5.3521-.1876-2.1185,1.1999-4.0112,2.9335-5.0612"/>
      <path class="cls-38" d="M140.0309,312.5288c3.4772,.0661,6.9823-.3,10.4321,.2061,2.8496,.8626,2.6898,5.3246-.0936,6.2423-3.4212,.6189-6.9273,.1687-10.3847,.2537,.0748-2.2309,.1027-4.471,.0463-6.7021"/>
      <path class="cls-39" d="M110.7408,318.7908c-2.5586-.9374-2.5495-4.9584-.0372-5.9523,3.4584-.7411,7.0384-.1974,10.5445-.1313,0,2.1277,.0275,4.2649,.0839,6.401-3.5051-.0463-7.1797,.6939-10.5912-.3174"/>
      <path class="cls-41" d="M326.4665,315.0873c2.8872,.0376,5.7744,.0287,8.6706,0-.2162,4.4248,.44,8.896-.3377,13.272-.975,3.7972-7.077,3.9462-8.0047,.0387-.7498-4.3872-.1598-8.8771-.3283-13.3107"/>
      <path class="cls-37" d="M127.3114,324.9955c2.1099,.065,4.2274,.14,6.3362,.3087,.4786,3.8612,.5347,7.7521-.2527,11.5757-1.8561,.825-4.4523,1.5274-5.5673-.7783-1.2375-3.5612-.4313-7.4223-.5162-11.1061"/>
    </g>
  </g>
</svg>